<svg width="162" height="158" viewBox="0 0 162 158" fill="none" xmlns="http://www.w3.org/2000/svg">
<g clip-path="url(#clip0_843_19781)">
<path d="M119.714 106.019C114.551 103.876 112.772 103.474 112.79 101.486C112.808 99.6339 115.28 99.0318 117.625 99.0318C119.686 99.0318 122.195 99.7798 122.268 101.23V103.255C122.268 103.474 122.45 103.657 122.669 103.657H129.711C129.93 103.657 130.113 103.474 130.113 103.255V97.6179C130.113 97.0341 129.866 96.4868 129.429 96.1128C127.942 94.8357 123.992 92.1356 117.123 92.1265C107.034 92.1265 103.358 97.098 103.358 101.239C103.358 104.624 105.018 108.345 113.52 111.429C120.389 113.919 123.034 114.804 122.724 117.166C122.478 119.055 119.495 119.629 117.114 119.638C114.733 119.648 111.778 118.516 111.778 116.829V115.041C111.778 114.822 111.595 114.64 111.376 114.64H103.951C103.732 114.64 103.549 114.822 103.549 115.041V120.24C103.549 120.724 103.723 121.189 104.042 121.554C105.383 123.087 109.625 126.845 118.801 126.334C126.911 125.878 131.235 121.125 131.235 117.248C131.235 112.788 128.817 109.814 119.723 106.019" fill="#FF281E"/>
<path d="M44.2201 92.5371C35.2714 92.5371 28.0103 100.026 28.0103 109.267C28.0103 118.507 35.2623 125.997 44.2201 125.997C53.1779 125.997 60.4207 118.507 60.4207 109.267C60.4207 100.026 53.1688 92.5371 44.2201 92.5371ZM44.2201 118.06C39.878 118.06 36.3478 114.129 36.3478 109.267C36.3478 104.405 39.8689 100.473 44.2201 100.473C48.5713 100.473 52.0924 104.405 52.0924 109.267C52.0924 114.129 48.5713 118.06 44.2201 118.06Z" fill="#FF281E"/>
<path d="M99.0161 118.115H96.8086C96.0697 118.115 95.4768 117.522 95.4768 116.784V92.9751C95.4768 92.7562 95.2943 92.5737 95.0754 92.5737H87.9329C87.714 92.5737 87.5315 92.7562 87.5315 92.9751V95.6296C85.1598 93.7049 82.2772 92.5737 79.1575 92.5737C71.121 92.5737 64.6079 100.054 64.6079 109.294C64.6079 118.535 71.121 126.015 79.1575 126.015C82.7698 126.015 86.072 124.501 88.617 121.992V125.614C88.617 125.833 88.7995 126.015 89.0184 126.015H99.0161C99.235 126.015 99.4175 125.833 99.4175 125.614V118.526C99.4175 118.307 99.235 118.124 99.0161 118.124M80.4346 118.097C76.2841 118.097 72.9181 114.156 72.9181 109.294C72.9181 104.432 76.2841 100.492 80.4346 100.492C84.5851 100.492 87.9511 104.432 87.9511 109.294C87.9511 114.156 84.5851 118.097 80.4346 118.097Z" fill="#FF281E"/>
<path d="M160.936 122.84L157.287 116.546C157.169 116.346 156.913 116.291 156.713 116.419C155.837 117.012 153.301 118.343 150.984 117.267C148.576 116.154 148.649 113.025 148.649 113.025V103.274H156.849C157.068 103.274 157.251 103.091 157.251 102.872V95.7299C157.251 95.511 157.068 95.3285 156.849 95.3285H148.649V88.6421C148.649 88.4232 148.466 88.2407 148.247 88.2407H141.342C141.123 88.2407 140.941 88.4232 140.941 88.6421V91.105C140.941 92.9021 140.475 94.1153 139.363 95.064C138.04 96.1951 136.197 96.3958 135.404 96.4232C135.194 96.4232 135.021 96.6056 135.021 96.8245V102.872C135.021 103.091 135.203 103.274 135.422 103.274H139.983V112.669C140.038 113.965 139.582 120.779 144.589 124.054C151.294 128.451 159.832 124.099 160.827 123.36C160.991 123.242 161.027 123.014 160.927 122.84" fill="#FF281E"/>
<path d="M26.9063 122.84L23.2575 116.546C23.139 116.346 22.8835 116.291 22.6829 116.419C21.8071 117.012 19.2712 118.343 16.9542 117.267C14.546 116.154 14.619 113.025 14.619 113.025V103.274H22.8197C23.0386 103.274 23.2211 103.091 23.2211 102.872V95.7299C23.2211 95.511 23.0386 95.3285 22.8197 95.3285H14.619V88.6421C14.619 88.4232 14.4366 88.2407 14.2176 88.2407H7.31227C7.09335 88.2407 6.91091 88.4232 6.91091 88.6421V91.105C6.91091 92.9021 6.44568 94.1153 5.3328 95.064C4.01011 96.1951 2.16746 96.3958 1.37385 96.4232C1.16404 96.4232 0.990723 96.6056 0.990723 96.8245V102.872C0.990723 103.091 1.17316 103.274 1.39209 103.274H5.95309V112.669C6.00783 113.965 5.55173 120.779 10.5597 124.054C17.2644 128.451 25.8026 124.099 26.7969 123.36C26.9611 123.242 26.9976 123.014 26.8972 122.84" fill="#FF281E"/>
<path d="M13.9713 66.0557V45.4673C13.9713 45.2484 13.7889 45.0659 13.57 45.0659H5.20508C4.98615 45.0659 4.80371 45.2484 4.80371 45.4673V74.8766C4.80371 75.0956 4.98615 75.278 5.20508 75.278H18.1583C18.3773 75.278 18.5597 75.0956 18.5597 74.8766V67.7888C18.5597 67.5699 18.3773 67.3875 18.1583 67.3875H15.3031C14.5643 67.3875 13.9713 66.7945 13.9713 66.0557Z" fill="#FF281E"/>
<path d="M15.2393 35.8803C15.2393 38.5804 12.676 40.7697 9.51979 40.7697C6.36358 40.7697 3.80029 38.5804 3.80029 35.8803C3.80029 33.1802 6.36358 31 9.51979 31C12.676 31 15.2393 33.1893 15.2393 35.8803Z" fill="#FF281E"/>
<path d="M153.465 64.1309C153.319 63.9576 153.064 63.9394 152.9 64.0853C147.39 68.7649 137.839 67.725 136.909 59.5243C136.124 52.619 141.561 50.0739 145.036 50.0648C145.821 50.0648 146.423 50.0648 146.888 50.1287C147.554 50.2108 148.047 50.7854 148.047 51.4605V53.7866C148.047 54.0055 148.229 54.1879 148.448 54.1879H155.399C155.618 54.1879 155.8 54.0055 155.8 53.7866V45.9325C155.8 45.2119 155.426 44.546 154.806 44.1902C150.564 41.7273 144.744 41.1252 139.91 42.5391C132.056 44.847 127.96 51.2689 128.17 58.7307C128.325 64.1309 129.565 71.3464 138.614 74.2746C148.393 77.4399 156.421 71.5927 158.044 70.2062C158.209 70.0602 158.236 69.8139 158.09 69.6406L153.456 64.1218L153.465 64.1309Z" fill="#FF281E"/>
<path d="M89.2647 67.3877H87.0571C86.3182 67.3877 85.7253 66.7947 85.7253 66.0558V42.2383C85.7253 42.0194 85.5429 41.8369 85.3239 41.8369H78.1814C77.9625 41.8369 77.78 42.0194 77.78 42.2383V44.8928C75.4083 42.968 72.5258 41.8369 69.406 41.8369C61.3696 41.8369 54.8564 49.317 54.8564 58.5576C54.8564 67.7981 61.3696 75.2782 69.406 75.2782C73.0184 75.2782 76.3205 73.7639 78.8656 71.2554V74.8768C78.8656 75.0957 79.048 75.2782 79.2669 75.2782H89.2647C89.4836 75.2782 89.666 75.0957 89.666 74.8768V67.789C89.666 67.5701 89.4836 67.3877 89.2647 67.3877ZM70.6831 67.3603C66.5326 67.3603 63.1666 63.4196 63.1666 58.5576C63.1666 53.6955 66.5326 49.7548 70.6831 49.7548C74.8336 49.7548 78.1997 53.6955 78.1997 58.5576C78.1997 63.4196 74.8336 67.3603 70.6831 67.3603Z" fill="#FF281E"/>
<path d="M125.57 67.3877H123.363C122.624 67.3877 122.031 66.7947 122.031 66.0558V42.2383C122.031 42.0194 121.849 41.8369 121.63 41.8369H114.487C114.268 41.8369 114.086 42.0194 114.086 42.2383V44.8928C111.714 42.968 108.831 41.8369 105.712 41.8369C97.6752 41.8369 91.1621 49.317 91.1621 58.5576C91.1621 67.7981 97.6752 75.2782 105.712 75.2782C109.324 75.2782 112.626 73.7639 115.171 71.2554V74.8768C115.171 75.0957 115.354 75.2782 115.573 75.2782H125.57C125.789 75.2782 125.972 75.0957 125.972 74.8768V67.789C125.972 67.5701 125.789 67.3877 125.57 67.3877ZM106.989 67.3603C102.838 67.3603 99.4723 63.4196 99.4723 58.5576C99.4723 53.6955 102.838 49.7548 106.989 49.7548C111.139 49.7548 114.505 53.6955 114.505 58.5576C114.505 63.4196 111.139 67.3603 106.989 67.3603Z" fill="#FF281E"/>
<path d="M39.6224 55.2917C34.4593 53.1481 32.6805 52.7467 32.6988 50.7581C32.717 48.9063 35.1891 48.3043 37.5334 48.3043C39.595 48.3043 42.1035 49.0523 42.1765 50.5027V52.5278C42.1765 52.7467 42.359 52.9291 42.5779 52.9291H49.6201C49.839 52.9291 50.0215 52.7467 50.0215 52.5278V46.8904C50.0215 46.3066 49.7752 45.7592 49.3373 45.3852C47.8504 44.1082 43.9006 41.408 37.0317 41.3989C26.9428 41.3989 23.2666 46.3704 23.2666 50.5118C23.2666 53.8961 24.9268 57.6179 33.4285 60.7011C40.2974 63.1914 42.9428 64.0762 42.6326 66.4388C42.3863 68.3271 39.4034 68.9018 37.0226 68.9109C34.6417 68.92 31.6862 67.7889 31.6862 66.1013V64.3134C31.6862 64.0945 31.5038 63.912 31.2848 63.912H23.8595C23.6406 63.912 23.4582 64.0945 23.4582 64.3134V69.513C23.4582 69.9964 23.6315 70.4616 23.9508 70.8265C25.2917 72.359 29.5334 76.1173 38.7102 75.6065C46.8196 75.1504 51.1435 70.3978 51.1435 66.5209C51.1435 62.0603 48.7261 59.0865 39.6315 55.2917" fill="#FF281E"/>
</g>
<defs>
<clipPath id="clip0_843_19781">
<rect width="160" height="95" fill="white" transform="translate(1 31)"/>
</clipPath>
</defs>
</svg>
