<svg width="499" height="158" viewBox="0 0 499 158" fill="none" xmlns="http://www.w3.org/2000/svg">
<g clip-path="url(#clip0_986_19724)">
<path d="M444.971 31.853C438.219 29.0394 435.887 28.5183 435.913 25.9131C435.931 23.4816 439.181 22.6914 442.241 22.6914C444.937 22.6914 448.222 23.6727 448.317 25.5745V28.2318C448.317 28.5183 448.551 28.7528 448.837 28.7528H458.06C458.346 28.7528 458.58 28.5183 458.58 28.2318V20.833C458.58 20.0688 458.26 19.348 457.679 18.853C455.729 17.177 450.562 13.6339 441.573 13.6339C428.372 13.6339 423.561 20.1556 423.561 25.5831C423.561 30.0207 425.728 34.9011 436.867 38.9392C445.856 42.1957 449.314 43.368 448.907 46.4682C448.577 48.9345 444.685 49.6987 441.573 49.7074C438.462 49.7248 434.587 48.2398 434.587 46.0167V43.672C434.587 43.3854 434.353 43.1509 434.067 43.1509H424.35C424.064 43.1509 423.83 43.3854 423.83 43.672V50.489C423.83 51.1229 424.055 51.7308 424.471 52.2084C426.222 54.2231 431.77 59.1383 443.784 58.4696C454.394 57.8791 460.054 51.6439 460.054 46.5551C460.054 40.7107 456.881 36.8029 444.98 31.8356L444.971 31.853Z" fill="#FF281E"/>
<path d="M346.163 14.181C334.452 14.181 324.952 24.0027 324.952 36.1169C324.952 48.2311 334.444 58.0528 346.163 58.0528C357.882 58.0528 367.374 48.2311 367.374 36.1169C367.374 24.0027 357.882 14.181 346.163 14.181ZM346.163 47.6406C340.477 47.6406 335.865 42.4823 335.865 36.1169C335.865 29.7515 340.477 24.5932 346.163 24.5932C351.849 24.5932 356.461 29.7515 356.461 36.1169C356.461 42.4823 351.849 47.6406 346.163 47.6406Z" fill="#FF281E"/>
<path d="M417.884 47.7101H414.997C414.035 47.7101 413.255 46.9286 413.255 45.9646V14.7369C413.255 14.4503 413.021 14.2158 412.735 14.2158H403.382C403.096 14.2158 402.862 14.4503 402.862 14.7369V18.2192C399.759 15.7008 395.979 14.2158 391.896 14.2158C381.373 14.2158 372.853 24.0288 372.853 36.1343C372.853 48.2399 381.382 58.0528 391.896 58.0528C396.629 58.0528 400.955 56.0642 404.283 52.7816V57.5318C404.283 57.8184 404.517 58.0528 404.803 58.0528H417.892C418.178 58.0528 418.412 57.8184 418.412 57.5318V48.2399C418.412 47.9533 418.178 47.7188 417.892 47.7188L417.884 47.7101ZM393.569 47.6754C388.135 47.6754 383.731 42.5084 383.731 36.1343C383.731 29.7602 388.135 24.5932 393.569 24.5932C399.004 24.5932 403.408 29.7602 403.408 36.1343C403.408 42.5084 399.004 47.6754 393.569 47.6754Z" fill="#FF281E"/>
<path d="M498.931 53.9104L494.154 45.6519C493.998 45.3914 493.66 45.3219 493.409 45.4869C492.265 46.2598 488.945 48.0053 485.911 46.5985C482.756 45.1396 482.851 41.032 482.851 41.032V28.2491H493.591C493.877 28.2491 494.111 28.0147 494.111 27.7281V18.358C494.111 18.0714 493.877 17.837 493.591 17.837H482.851V9.06609C482.851 8.77951 482.617 8.54504 482.331 8.54504H473.29C473.004 8.54504 472.77 8.77951 472.77 9.06609V12.2965C472.77 14.6499 472.163 16.2391 470.707 17.4896C468.973 18.9746 466.564 19.2351 465.532 19.2698C465.255 19.2785 465.038 19.513 465.038 19.7909V27.7281C465.038 28.0147 465.272 28.2491 465.558 28.2491H471.531V40.5718C471.6 42.2652 471.01 51.2097 477.555 55.4996C486.336 61.2571 497.509 55.5604 498.801 54.5878C499.017 54.4315 499.069 54.1362 498.931 53.9104Z" fill="#FF281E"/>
<path d="M323.504 53.9104L318.728 45.6519C318.572 45.3914 318.234 45.3219 317.983 45.4869C316.839 46.2598 313.519 48.0053 310.485 46.5985C307.33 45.1396 307.425 41.032 307.425 41.032V28.2491H318.165C318.451 28.2491 318.685 28.0147 318.685 27.7281V18.358C318.685 18.0714 318.451 17.837 318.165 17.837H307.425V9.06609C307.425 8.77951 307.191 8.54504 306.905 8.54504H297.864C297.578 8.54504 297.344 8.77951 297.344 9.06609V12.2965C297.344 14.6499 296.737 16.2391 295.281 17.4896C293.547 18.9746 291.137 19.2351 290.106 19.2698C289.829 19.2785 289.612 19.513 289.612 19.7909V27.7281C289.612 28.0147 289.846 28.2491 290.132 28.2491H296.104V40.5718C296.174 42.2652 295.584 51.2097 302.129 55.4996C310.909 61.2571 322.083 55.5604 323.374 54.5878C323.591 54.4315 323.643 54.1362 323.504 53.9104Z" fill="#FF281E"/>
<path d="M13.3058 45.9559V18.9747C13.3058 18.6881 13.0718 18.4536 12.7857 18.4536H1.82917C1.54312 18.4536 1.30908 18.6881 1.30908 18.9747V57.5318C1.30908 57.8183 1.54312 58.0528 1.82917 58.0528H18.7841C19.0701 58.0528 19.3042 57.8183 19.3042 57.5318V48.2312C19.3042 47.9446 19.0701 47.7101 18.7841 47.7101H15.0481C14.086 47.7101 13.3058 46.9286 13.3058 45.9646V45.9559Z" fill="#FF281E"/>
<path d="M7.48062 12.8176C11.6121 12.8176 14.9612 9.94831 14.9612 6.40882C14.9612 2.86933 11.6121 0 7.48062 0C3.34919 0 0 2.86933 0 6.40882C0 9.94831 3.34919 12.8176 7.48062 12.8176Z" fill="#FF281E"/>
<path d="M195.857 43.4376C195.666 43.2118 195.337 43.1944 195.112 43.3855C187.9 49.5251 175.4 48.153 174.187 37.4109C173.164 28.3621 180.272 25.0187 184.831 25.0014C185.863 25.0014 186.652 25.01 187.258 25.0882C188.125 25.2011 188.775 25.9566 188.775 26.8337V29.8905C188.775 30.1857 189.009 30.4202 189.304 30.4202H198.397C198.692 30.4202 198.926 30.1857 198.926 29.8905V19.5912C198.926 18.6533 198.432 17.7762 197.617 17.2986C192.069 14.0682 184.45 13.2779 178.131 15.1363C167.85 18.1583 162.493 26.5819 162.762 36.3688C162.961 43.4463 164.582 52.9119 176.432 56.7589C189.226 60.9098 199.732 53.2418 201.855 51.4269C202.072 51.2358 202.098 50.9058 201.916 50.6887L195.857 43.4463V43.4376Z" fill="#FF281E"/>
<path d="M111.845 47.7101H108.959C107.996 47.7101 107.216 46.9286 107.216 45.9646V14.7369C107.216 14.4503 106.982 14.2158 106.696 14.2158H97.3432C97.0572 14.2158 96.8231 14.4503 96.8231 14.7369V18.2192C93.7199 15.7008 89.9406 14.2158 85.8579 14.2158C75.3348 14.2158 66.814 24.0288 66.814 36.1343C66.814 48.2399 75.3434 58.0528 85.8579 58.0528C90.5907 58.0528 94.9161 56.0642 98.2447 52.7816V57.5318C98.2447 57.8184 98.4788 58.0528 98.7648 58.0528H111.854C112.14 58.0528 112.374 57.8184 112.374 57.5318V48.2399C112.374 47.9533 112.14 47.7188 111.854 47.7188L111.845 47.7101ZM87.5222 47.6754C82.0873 47.6754 77.6838 42.5084 77.6838 36.1343C77.6838 29.7602 82.0873 24.5932 87.5222 24.5932C92.9571 24.5932 97.3606 29.7602 97.3606 36.1343C97.3606 42.5084 92.9571 47.6754 87.5222 47.6754Z" fill="#FF281E"/>
<path d="M159.364 47.7101H156.478C155.515 47.7101 154.735 46.9286 154.735 45.9646V14.7369C154.735 14.4503 154.501 14.2158 154.215 14.2158H144.862C144.576 14.2158 144.342 14.4503 144.342 14.7369V18.2192C141.239 15.7008 137.46 14.2158 133.377 14.2158C122.854 14.2158 114.333 24.0288 114.333 36.1343C114.333 48.2399 122.862 58.0528 133.377 58.0528C138.11 58.0528 142.435 56.0642 145.764 52.7816V57.5318C145.764 57.8184 145.998 58.0528 146.284 58.0528H159.373C159.659 58.0528 159.893 57.8184 159.893 57.5318V48.2399C159.893 47.9533 159.659 47.7188 159.373 47.7188L159.364 47.7101ZM135.05 47.6754C129.615 47.6754 125.212 42.5084 125.212 36.1343C125.212 29.7602 129.615 24.5932 135.05 24.5932C140.485 24.5932 144.888 29.7602 144.888 36.1343C144.888 42.5084 140.485 47.6754 135.05 47.6754Z" fill="#FF281E"/>
<path d="M46.8776 31.853C40.1251 29.0394 37.7934 28.5183 37.8194 25.9131C37.8368 23.4816 41.0873 22.6914 44.1472 22.6914C46.843 22.6914 50.1282 23.6727 50.2236 25.5745V28.2318C50.2236 28.5183 50.4576 28.7528 50.7436 28.7528H59.9666C60.2526 28.7528 60.4867 28.5183 60.4867 28.2318V20.833C60.4867 20.0688 60.1659 19.348 59.5852 18.853C57.6348 17.177 52.4686 13.6339 43.4797 13.6339C30.2781 13.6339 25.4673 20.1556 25.4673 25.5831C25.4673 30.0207 27.6343 34.9011 38.7729 38.9392C47.7618 42.1957 51.2204 43.368 50.813 46.4682C50.4836 48.9345 46.5916 49.6987 43.4797 49.7074C40.3679 49.7248 36.4932 48.2398 36.4932 46.0167V43.672C36.4932 43.3854 36.2591 43.1509 35.9731 43.1509H26.2561C25.97 43.1509 25.736 43.3854 25.736 43.672V50.489C25.736 51.1229 25.9614 51.7308 26.3774 52.2084C28.1284 54.2231 33.676 59.1383 45.6901 58.4696C56.2999 57.8791 61.9603 51.6439 61.9603 46.5551C61.9603 40.7107 58.7877 36.8029 46.8863 31.8356L46.8776 31.853Z" fill="#FF281E"/>
<rect x="221" y="16" width="53" height="43" fill="white"/>
<path d="M236.996 31.6967C239.692 31.6967 241.877 29.5078 241.877 26.8076C241.877 24.1074 239.692 21.9185 236.996 21.9185C234.301 21.9185 232.116 24.1074 232.116 26.8076C232.116 29.5078 234.301 31.6967 236.996 31.6967Z" fill="#FF281E"/>
<path d="M254.844 31.6967C257.539 31.6967 259.724 29.5078 259.724 26.8076C259.724 24.1074 257.539 21.9185 254.844 21.9185C252.149 21.9185 249.964 24.1074 249.964 26.8076C249.964 29.5078 252.149 31.6967 254.844 31.6967Z" fill="#FF281E"/>
<path d="M275.864 14.6761C269.97 13.8685 265.315 9.19645 264.509 3.29999C264.379 2.32738 263.581 1.58923 262.611 1.58923H226.646C219.816 1.58923 214.277 7.13833 214.277 13.9814V61.5699C214.277 63.4717 215.811 65.0087 217.709 65.0087H274.148C276.046 65.0087 277.58 63.4717 277.58 61.5699V16.5779C277.58 15.5966 276.844 14.8063 275.873 14.6761H275.864ZM236.996 16.491C240.819 16.491 244.147 18.5839 245.924 21.6754C247.701 18.5752 251.03 16.491 254.853 16.491C260.539 16.491 265.15 21.1109 265.15 26.8077C265.15 32.5044 260.539 37.1243 254.853 37.1243C251.03 37.1243 247.701 35.0314 245.924 31.9399C244.147 35.0401 240.819 37.1243 236.996 37.1243C231.31 37.1243 226.698 32.5044 226.698 26.8077C226.698 21.1109 231.31 16.491 236.996 16.491ZM272.839 42.4042L269.51 46.4596C269.406 46.5899 269.216 46.6073 269.086 46.5031L266.945 44.7402C266.832 44.6447 266.659 44.6534 266.546 44.7576C261.059 50.0548 253.934 52.8424 245.751 52.8424C235.757 52.8424 227.218 48.5785 221.532 40.8063C221.445 40.6848 221.471 40.5198 221.584 40.4242L225.701 37.0896C225.823 36.994 225.996 37.0201 226.092 37.1417C230.703 43.5765 237.473 46.9807 245.751 46.9807C253.275 46.9807 259.663 44.1063 264.231 38.6701L265.896 36.6901C266 36.5598 266.19 36.5425 266.32 36.6554L272.796 41.9787C272.926 42.0829 272.943 42.2739 272.839 42.4042Z" fill="#FF281E"/>
</g>
<g clip-path="url(#clip1_986_19724)">
<rect x="231" y="115" width="46" height="38" fill="white"/>
<path d="M267.413 103.838H238.516C233.021 103.838 228.571 108.308 228.571 113.826V152.165C228.571 153.697 229.806 154.937 231.331 154.937H276.686C278.211 154.937 279.445 153.697 279.445 152.165V115.924C279.445 115.133 278.849 114.492 278.07 114.384C273.338 113.735 269.592 109.972 268.946 105.22C268.838 104.437 268.2 103.838 267.421 103.838" fill="white"/>
<path d="M219.166 156.785V100.7" stroke="#0096FF" stroke-width="0.4" stroke-miterlimit="10"/>
<path d="M228.571 100.7V156.785" stroke="#0096FF" stroke-width="0.4" stroke-miterlimit="10"/>
<g opacity="0.6">
<mask id="mask0_986_19724" style="mask-type:luminance" maskUnits="userSpaceOnUse" x="56" y="102" width="402" height="53">
<path d="M457.086 102.564H56.4082V154.929H457.086V102.564Z" fill="white"/>
</mask>
<g mask="url(#mask0_986_19724)">
<path d="M413.678 128.226C408.25 125.954 406.378 125.546 406.402 123.44C406.419 121.484 409.029 120.851 411.482 120.851C413.645 120.851 416.289 121.642 416.363 123.174V125.313C416.363 125.546 416.554 125.737 416.786 125.737H424.195C424.427 125.737 424.617 125.546 424.617 125.313V119.353C424.617 118.737 424.36 118.163 423.896 117.755C422.33 116.407 418.178 113.552 410.96 113.552C400.353 113.552 396.491 118.804 396.491 123.174C396.491 126.745 398.231 130.682 407.181 133.936C414.408 136.558 417.184 137.499 416.852 140.004C416.587 141.994 413.455 142.601 410.952 142.618C408.449 142.626 405.342 141.436 405.342 139.646V137.757C405.342 137.524 405.151 137.332 404.919 137.332H397.113C396.881 137.332 396.69 137.524 396.69 137.757V143.25C396.69 143.758 396.872 144.249 397.204 144.641C398.613 146.264 403.071 150.226 412.717 149.685C421.245 149.21 425.794 144.191 425.794 140.087C425.794 135.376 423.25 132.23 413.687 128.235" fill="#FF281E"/>
<path d="M334.289 113.984C324.875 113.984 317.25 121.9 317.25 131.656C317.25 141.411 324.883 149.327 334.289 149.327C343.694 149.327 351.327 141.411 351.327 131.656C351.327 121.9 343.694 113.984 334.289 113.984ZM334.289 140.945C329.722 140.945 326.01 136.791 326.01 131.656C326.01 126.52 329.714 122.366 334.289 122.366C338.863 122.366 342.559 126.52 342.559 131.656C342.559 136.791 338.855 140.945 334.289 140.945Z" fill="#FF281E"/>
<path d="M391.909 140.995H389.588C388.818 140.995 388.188 140.362 388.188 139.588V114.434C388.188 114.201 387.997 114.009 387.765 114.009H380.249C380.017 114.009 379.826 114.201 379.826 114.434V117.239C377.332 115.208 374.299 114.018 371.017 114.018C362.564 114.018 355.711 121.925 355.711 131.672C355.711 141.419 362.564 149.327 371.017 149.327C374.821 149.327 378.293 147.72 380.97 145.082V148.911C380.97 149.144 381.16 149.335 381.392 149.335H391.909C392.141 149.335 392.331 149.144 392.331 148.911V141.428C392.331 141.194 392.141 141.003 391.909 141.003M372.368 140.978C368.001 140.978 364.462 136.816 364.462 131.68C364.462 126.545 368.001 122.383 372.368 122.383C376.735 122.383 380.274 126.545 380.274 131.68C380.274 136.816 376.735 140.978 372.368 140.978Z" fill="#FF281E"/>
<path d="M457.028 145.989L453.191 139.338C453.067 139.13 452.793 139.072 452.594 139.205C451.675 139.829 449.006 141.236 446.57 140.104C444.034 138.93 444.109 135.618 444.109 135.618V125.321H452.735C452.967 125.321 453.158 125.13 453.158 124.897V117.347C453.158 117.114 452.967 116.923 452.735 116.923H444.109V109.856C444.109 109.623 443.918 109.431 443.686 109.431H436.426C436.194 109.431 436.004 109.623 436.004 109.856V112.461C436.004 114.359 435.515 115.641 434.346 116.64C432.954 117.838 431.015 118.046 430.186 118.071C429.963 118.071 429.789 118.271 429.789 118.496V124.888C429.789 125.121 429.979 125.313 430.211 125.313H435.009V135.243C435.067 136.608 434.587 143.808 439.849 147.271C446.901 151.907 455.876 147.321 456.92 146.538C457.094 146.413 457.136 146.172 457.028 145.989Z" fill="#FF281E"/>
<path d="M316.082 145.989L312.245 139.338C312.121 139.13 311.848 139.072 311.649 139.205C310.729 139.829 308.06 141.236 305.624 140.104C303.088 138.93 303.163 135.618 303.163 135.618V125.321H311.79C312.022 125.321 312.212 125.13 312.212 124.897V117.347C312.212 117.114 312.022 116.923 311.79 116.923H303.163V109.856C303.163 109.623 302.972 109.431 302.74 109.431H295.481C295.249 109.431 295.058 109.623 295.058 109.856V112.461C295.058 114.359 294.569 115.641 293.401 116.64C292.008 117.838 290.069 118.046 289.241 118.071C289.017 118.071 288.843 118.271 288.843 118.496V124.888C288.843 125.121 289.033 125.313 289.265 125.313H294.064V135.243C294.122 136.608 293.641 143.808 298.903 147.271C305.955 151.907 314.939 147.321 315.975 146.538C316.149 146.413 316.19 146.172 316.082 145.989Z" fill="#FF281E"/>
<path d="M67.0982 139.588V117.847C67.0982 117.613 66.9076 117.422 66.6756 117.422H57.8748C57.6428 117.422 57.4521 117.613 57.4521 117.847V148.902C57.4521 149.135 57.6428 149.327 57.8748 149.327H71.4987C71.7307 149.327 71.9213 149.135 71.9213 148.902V141.411C71.9213 141.178 71.7307 140.986 71.4987 140.986H68.4988C67.7281 140.986 67.0982 140.354 67.0982 139.58" fill="#FF281E"/>
<path d="M68.4327 107.725C68.4327 110.572 65.7394 112.886 62.4163 112.886C59.0932 112.886 56.4082 110.572 56.4082 107.725C56.4082 104.878 59.1015 102.564 62.4163 102.564C65.7311 102.564 68.4327 104.878 68.4327 107.725Z" fill="#FF281E"/>
<path d="M213.779 137.557C213.63 137.374 213.365 137.357 213.182 137.515C207.39 142.46 197.346 141.353 196.368 132.696C195.548 125.404 201.257 122.716 204.92 122.699C205.749 122.699 206.379 122.699 206.868 122.774C207.564 122.866 208.086 123.473 208.086 124.181V126.645C208.086 126.878 208.276 127.069 208.508 127.069H215.818C216.05 127.069 216.24 126.878 216.24 126.645V118.346C216.24 117.588 215.842 116.881 215.188 116.498C210.729 113.893 204.605 113.26 199.525 114.758C191.263 117.189 186.962 123.973 187.178 131.864C187.335 137.565 188.644 145.19 198.166 148.286C208.45 151.632 216.887 145.448 218.594 143.991C218.768 143.841 218.793 143.575 218.643 143.392L213.771 137.557H213.779Z" fill="#FF281E"/>
<path d="M146.273 140.995H143.953C143.182 140.995 142.552 140.362 142.552 139.588V114.434C142.552 114.201 142.361 114.009 142.129 114.009H134.613C134.381 114.009 134.19 114.201 134.19 114.434V117.239C131.696 115.208 128.663 114.018 125.381 114.018C116.929 114.018 110.075 121.925 110.075 131.672C110.075 141.419 116.929 149.327 125.381 149.327C129.185 149.327 132.657 147.72 135.334 145.082V148.911C135.334 149.144 135.525 149.335 135.757 149.335H146.273C146.505 149.335 146.696 149.144 146.696 148.911V141.428C146.696 141.194 146.505 141.003 146.273 141.003M126.732 140.978C122.365 140.978 118.826 136.816 118.826 131.68C118.826 126.545 122.365 122.383 126.732 122.383C131.099 122.383 134.638 126.545 134.638 131.68C134.638 136.816 131.099 140.978 126.732 140.978Z" fill="#FF281E"/>
<path d="M184.459 140.995H182.139C181.368 140.995 180.739 140.362 180.739 139.588V114.434C180.739 114.201 180.548 114.009 180.316 114.009H172.8C172.568 114.009 172.377 114.201 172.377 114.434V117.239C169.883 115.208 166.85 114.018 163.568 114.018C155.115 114.018 148.262 121.925 148.262 131.672C148.262 141.419 155.115 149.327 163.568 149.327C167.372 149.327 170.844 147.72 173.521 145.082V148.911C173.521 149.144 173.711 149.335 173.943 149.335H184.459C184.691 149.335 184.882 149.144 184.882 148.911V141.428C184.882 141.194 184.691 141.003 184.459 141.003M164.919 140.978C160.551 140.978 157.013 136.816 157.013 131.68C157.013 126.545 160.551 122.383 164.919 122.383C169.286 122.383 172.824 126.545 172.824 131.68C172.824 136.816 169.286 140.978 164.919 140.978Z" fill="#FF281E"/>
<path d="M94.0725 128.226C88.6445 125.954 86.7717 125.546 86.7965 123.44C86.8131 121.484 89.4235 120.851 91.8765 120.851C94.0394 120.851 96.683 121.642 96.7575 123.174V125.313C96.7575 125.546 96.9481 125.737 97.1802 125.737H104.589C104.821 125.737 105.011 125.546 105.011 125.313V119.353C105.011 118.737 104.755 118.163 104.29 117.755C102.724 116.407 98.5724 113.552 91.3544 113.552C80.747 113.552 76.8853 118.804 76.8853 123.174C76.8853 126.745 78.6255 130.682 87.5755 133.936C94.8018 136.558 97.578 137.499 97.2465 140.004C96.9813 141.994 93.8488 142.601 91.3544 142.618C88.8517 142.626 85.7358 141.436 85.7358 139.646V137.757C85.7358 137.524 85.5452 137.332 85.3132 137.332H77.5068C77.2747 137.332 77.0841 137.524 77.0841 137.757V143.25C77.0841 143.758 77.2665 144.249 77.5979 144.641C79.0067 146.264 83.4652 150.226 93.1113 149.685C101.639 149.21 106.188 144.191 106.188 140.087C106.188 135.376 103.644 132.23 94.0808 128.235" fill="#FF281E"/>
<path d="M267.413 103.838H238.516C233.021 103.838 228.571 108.308 228.571 113.826V152.165C228.571 153.697 229.806 154.937 231.331 154.937H276.686C278.211 154.937 279.445 153.697 279.445 152.165V115.924C279.445 115.133 278.849 114.492 278.07 114.384C273.338 113.735 269.592 109.972 268.946 105.22C268.838 104.437 268.2 103.838 267.421 103.838" fill="#FF281E"/>
<path d="M238.557 124.156C238.557 119.561 242.261 115.84 246.836 115.84C251.41 115.84 255.115 119.561 255.115 124.156C255.115 128.751 251.41 132.471 246.836 132.471C242.261 132.471 238.557 128.751 238.557 124.156Z" fill="white"/>
<path d="M252.902 124.156C252.902 119.561 256.606 115.84 261.181 115.84C265.755 115.84 269.459 119.561 269.459 124.156C269.459 128.751 265.755 132.471 261.181 132.471C256.606 132.471 252.902 128.751 252.902 124.156Z" fill="white"/>
<path d="M242.908 124.156C242.908 121.983 244.665 120.219 246.827 120.219C248.99 120.219 250.747 121.983 250.747 124.156C250.747 126.328 248.99 128.093 246.827 128.093C244.665 128.093 242.908 126.328 242.908 124.156Z" fill="#FF281E"/>
<path d="M257.252 124.156C257.252 121.983 259.009 120.219 261.172 120.219C263.335 120.219 265.092 121.983 265.092 124.156C265.092 126.328 263.335 128.093 261.172 128.093C259.009 128.093 257.252 126.328 257.252 124.156Z" fill="#FF281E"/>
<path d="M275.6 136.375L270.396 132.088C270.296 132.005 270.139 132.022 270.056 132.122L268.713 133.72C265.042 138.098 259.913 140.412 253.863 140.412C247.209 140.412 241.772 137.665 238.068 132.48C237.993 132.38 237.852 132.355 237.753 132.438L234.447 135.126C234.355 135.201 234.339 135.335 234.405 135.434C238.971 141.694 245.833 145.123 253.863 145.123C260.443 145.123 266.169 142.884 270.578 138.614C270.661 138.531 270.802 138.523 270.893 138.597L272.608 140.021C272.708 140.104 272.865 140.087 272.948 139.988L275.625 136.725C275.708 136.625 275.699 136.467 275.592 136.383" fill="white"/>
</g>
</g>
<path d="M71.9215 105.944H48.7593" stroke="#0096FF" stroke-width="0.4" stroke-miterlimit="10"/>
<path d="M228.571 141.045H48.7593" stroke="#0096FF" stroke-width="0.4" stroke-miterlimit="10"/>
<path d="M462 141.045H279.437" stroke="#0096FF" stroke-width="0.4" stroke-miterlimit="10"/>
<path d="M453.307 158V100.7" stroke="#0096FF" stroke-width="0.4" stroke-miterlimit="10"/>
<path d="M462 109.348H48.7593" stroke="#0096FF" stroke-width="0.4" stroke-miterlimit="10"/>
<path d="M462 149.26H48.7593" stroke="#0096FF" stroke-width="0.4" stroke-miterlimit="10"/>
<path d="M462 116.781H430.385" stroke="#0096FF" stroke-width="0.4" stroke-miterlimit="10"/>
<path d="M462 125.479H430.385" stroke="#0096FF" stroke-width="0.4" stroke-miterlimit="10"/>
<path d="M44.8807 109.44H41.2759V149.327H44.8807" stroke="#0096FF" stroke-width="0.4" stroke-miterlimit="10"/>
<path d="M228.571 97.753V94.1322H219.166V97.753" stroke="#0096FF" stroke-width="0.4" stroke-miterlimit="10"/>
<path d="M34 131.672V127.011H34.7127V131.672H34ZM34.3149 129.691V129H37.348V129.691H34.3149ZM37.0331 131.672V127.011H37.7457V131.672H37.0331Z" fill="#0096FF"/>
<path d="M217.185 90.7945C216.828 90.7945 216.53 90.6946 216.273 90.5031C216.016 90.3117 215.826 90.0287 215.685 89.6708C215.544 89.3128 215.478 88.8883 215.478 88.3972C215.478 87.9061 215.544 87.4816 215.685 87.1237C215.826 86.7658 216.016 86.4911 216.273 86.2913C216.53 86.0999 216.828 86 217.185 86C217.541 86 217.839 86.0999 218.096 86.2913C218.353 86.4911 218.552 86.7658 218.685 87.1237C218.825 87.4816 218.892 87.9061 218.892 88.3972C218.892 88.8883 218.825 89.3128 218.685 89.6708C218.544 90.0287 218.353 90.3034 218.096 90.5031C217.839 90.7029 217.533 90.7945 217.185 90.7945ZM217.185 90.1452C217.508 90.1452 217.756 89.9954 217.93 89.6874C218.105 89.3794 218.196 88.9549 218.196 88.3972C218.196 87.8395 218.105 87.415 217.93 87.1071C217.756 86.7991 217.508 86.6492 217.185 86.6492C216.861 86.6492 216.613 86.7991 216.439 87.1071C216.265 87.415 216.174 87.8395 216.174 88.3972C216.174 88.9549 216.265 89.3794 216.439 89.6874C216.613 89.9954 216.861 90.1452 217.185 90.1452Z" fill="#0096FF"/>
<path d="M219.828 90.8028C219.679 90.8028 219.571 90.7612 219.489 90.6696C219.406 90.5864 219.373 90.4615 219.373 90.3034C219.373 90.1536 219.414 90.037 219.497 89.9455C219.58 89.8539 219.687 89.804 219.828 89.804C219.978 89.804 220.085 89.8456 220.168 89.9371C220.251 90.0204 220.284 90.1452 220.284 90.3034C220.284 90.4532 220.243 90.5697 220.16 90.6613C220.077 90.7529 219.969 90.8028 219.828 90.8028Z" fill="#0096FF"/>
<path d="M221.063 90.7278L220.848 90.1784L222.265 88.572C222.339 88.4887 222.422 88.3972 222.497 88.2973C222.571 88.1974 222.654 88.0892 222.729 87.9727C222.803 87.8645 222.861 87.7479 222.911 87.6397C222.961 87.5315 222.977 87.4316 222.977 87.3317C222.977 87.1902 222.952 87.0654 222.894 86.9655C222.836 86.8656 222.762 86.7907 222.654 86.7324C222.555 86.6825 222.422 86.6492 222.281 86.6492C222.157 86.6492 222.024 86.6825 221.9 86.7657C221.776 86.849 221.66 86.9488 221.56 87.082C221.461 87.2235 221.378 87.3817 221.32 87.5648L220.773 87.2152C220.848 86.9572 220.964 86.7408 221.113 86.5493C221.262 86.3662 221.452 86.2247 221.66 86.1248C221.867 86.0249 222.107 85.975 222.356 85.975C222.604 85.975 222.845 86.0332 223.052 86.1414C223.259 86.2497 223.417 86.3995 223.533 86.5909C223.649 86.7824 223.707 87.0071 223.707 87.2568C223.707 87.3567 223.698 87.4649 223.673 87.5731C223.649 87.6813 223.615 87.7895 223.566 87.9061C223.516 88.0226 223.458 88.1391 223.383 88.2557C223.309 88.3805 223.218 88.5054 223.118 88.6386C223.019 88.7717 222.894 88.9132 222.762 89.0547L221.709 90.2034L221.577 90.0036H223.856V90.6945H221.055L221.063 90.7278Z" fill="#0096FF"/>
<path d="M225.662 90.7779C225.356 90.7779 225.082 90.7113 224.833 90.5698C224.585 90.4283 224.378 90.2285 224.22 89.9705L224.618 89.521C224.825 89.754 225.007 89.9122 225.165 89.9954C225.322 90.0787 225.488 90.1203 225.67 90.1203C225.853 90.1203 226.019 90.0787 226.159 90.0038C226.309 89.9205 226.425 89.8123 226.507 89.6791C226.59 89.5376 226.64 89.3878 226.64 89.2213C226.64 89.0549 226.599 88.8884 226.516 88.7469C226.433 88.6054 226.325 88.4972 226.184 88.4139C226.043 88.3307 225.894 88.2891 225.72 88.2891C225.637 88.2891 225.554 88.2891 225.48 88.3057C225.405 88.3224 225.314 88.339 225.206 88.3806C225.099 88.4223 224.958 88.4805 224.792 88.5638L224.411 88.0477L224.684 86.0667H227.187V86.7325H225.132L225.273 86.6077L225.057 88.0893L224.891 87.8979C224.933 87.8562 225.007 87.8063 225.115 87.7647C225.223 87.7231 225.339 87.6898 225.472 87.6565C225.604 87.6315 225.728 87.6149 225.844 87.6149C226.126 87.6149 226.383 87.6814 226.607 87.8146C226.831 87.9478 227.005 88.1309 227.137 88.3557C227.27 88.5887 227.336 88.8468 227.336 89.1464C227.336 89.4461 227.262 89.7291 227.121 89.9788C226.972 90.2285 226.773 90.4199 226.524 90.5614C226.275 90.703 225.985 90.7779 225.679 90.7779H225.662Z" fill="#0096FF"/>
<path d="M228.248 90.7279V86.0667H228.961V90.7279H228.248ZM228.563 88.7469V88.056H231.596V88.7469H228.563ZM231.281 90.7279V86.0667H231.994V90.7279H231.281Z" fill="#0096FF"/>
<path d="M289.083 97.753V94.1322H279.677V97.753" stroke="#0096FF" stroke-width="0.4" stroke-miterlimit="10"/>
<path d="M277.696 90.7945C277.34 90.7945 277.042 90.6946 276.785 90.5031C276.528 90.3117 276.337 90.0287 276.196 89.6708C276.056 89.3128 275.989 88.8883 275.989 88.3972C275.989 87.9061 276.056 87.4816 276.196 87.1237C276.337 86.7658 276.528 86.4911 276.785 86.2913C277.042 86.0999 277.34 86 277.696 86C278.053 86 278.351 86.0999 278.608 86.2913C278.865 86.4911 279.064 86.7658 279.196 87.1237C279.337 87.4816 279.404 87.9061 279.404 88.3972C279.404 88.8883 279.337 89.3128 279.196 89.6708C279.055 90.0287 278.865 90.3034 278.608 90.5031C278.351 90.7029 278.044 90.7945 277.696 90.7945ZM277.696 90.1452C278.02 90.1452 278.268 89.9954 278.442 89.6874C278.616 89.3794 278.707 88.9549 278.707 88.3972C278.707 87.8395 278.616 87.415 278.442 87.1071C278.268 86.7991 278.02 86.6492 277.696 86.6492C277.373 86.6492 277.125 86.7991 276.951 87.1071C276.777 87.415 276.685 87.8395 276.685 88.3972C276.685 88.9549 276.777 89.3794 276.951 89.6874C277.125 89.9954 277.373 90.1452 277.696 90.1452Z" fill="#0096FF"/>
<path d="M280.332 90.8028C280.183 90.8028 280.075 90.7612 279.992 90.6696C279.909 90.5864 279.876 90.4615 279.876 90.3034C279.876 90.1536 279.917 90.037 280 89.9455C280.083 89.8539 280.199 89.804 280.332 89.804C280.481 89.804 280.589 89.8456 280.672 89.9371C280.754 90.0204 280.788 90.1452 280.788 90.3034C280.788 90.4532 280.746 90.5697 280.663 90.6613C280.58 90.7529 280.473 90.8028 280.332 90.8028Z" fill="#0096FF"/>
<path d="M281.575 90.7278L281.359 90.1784L282.776 88.572C282.851 88.4887 282.926 88.3972 283.008 88.2973C283.091 88.1974 283.166 88.0892 283.24 87.9727C283.315 87.8645 283.373 87.7479 283.423 87.6397C283.472 87.5315 283.489 87.4316 283.489 87.3317C283.489 87.1902 283.464 87.0654 283.406 86.9655C283.348 86.8656 283.274 86.7907 283.166 86.7324C283.066 86.6825 282.934 86.6492 282.793 86.6492C282.669 86.6492 282.536 86.6825 282.412 86.7657C282.287 86.849 282.171 86.9488 282.072 87.082C281.973 87.2235 281.89 87.3817 281.832 87.5648L281.285 87.2152C281.359 86.9572 281.475 86.7408 281.624 86.5493C281.774 86.3662 281.964 86.2247 282.171 86.1248C282.387 86.0249 282.619 85.975 282.867 85.975C283.116 85.975 283.356 86.0332 283.564 86.1414C283.771 86.2497 283.928 86.3995 284.044 86.5909C284.16 86.7824 284.218 87.0071 284.218 87.2568C284.218 87.3567 284.21 87.4649 284.185 87.5731C284.16 87.6813 284.127 87.7895 284.077 87.9061C284.028 88.0226 283.97 88.1391 283.895 88.2557C283.82 88.3805 283.729 88.5054 283.63 88.6386C283.522 88.7717 283.406 88.9132 283.274 89.0547L282.221 90.2034L282.089 90.0036H284.367V90.6945H281.566L281.575 90.7278Z" fill="#0096FF"/>
<path d="M286.166 90.7779C285.859 90.7779 285.586 90.7113 285.337 90.5698C285.089 90.4283 284.882 90.2285 284.724 89.9705L285.122 89.521C285.329 89.754 285.511 89.9122 285.669 89.9954C285.826 90.0787 285.992 90.1203 286.174 90.1203C286.357 90.1203 286.522 90.0787 286.663 90.0038C286.812 89.9205 286.928 89.8123 287.011 89.6791C287.094 89.5376 287.144 89.3878 287.144 89.2213C287.144 89.0549 287.103 88.8884 287.02 88.7469C286.937 88.6054 286.829 88.4972 286.688 88.4139C286.547 88.3307 286.398 88.2891 286.224 88.2891C286.141 88.2891 286.058 88.2891 285.984 88.3057C285.909 88.3224 285.818 88.339 285.71 88.3806C285.603 88.4223 285.462 88.4805 285.296 88.5638L284.915 88.0477L285.188 86.0667H287.691V86.7325H285.636L285.777 86.6077L285.561 88.0893L285.395 87.8979C285.437 87.8562 285.511 87.8063 285.619 87.7647C285.727 87.7231 285.843 87.6898 285.975 87.6565C286.108 87.6315 286.232 87.6149 286.348 87.6149C286.63 87.6149 286.887 87.6814 287.111 87.8146C287.335 87.9478 287.509 88.1309 287.641 88.3557C287.774 88.5887 287.84 88.8468 287.84 89.1464C287.84 89.4461 287.765 89.7291 287.625 89.9788C287.484 90.2285 287.277 90.4199 287.028 90.5614C286.779 90.703 286.489 90.7779 286.183 90.7779H286.166Z" fill="#0096FF"/>
<path d="M288.751 90.7279V86.0667H289.464V90.7279H288.751ZM289.066 88.7469V88.056H292.099V88.7469H289.066ZM291.785 90.7279V86.0667H292.497V90.7279H291.785Z" fill="#0096FF"/>
<path d="M67.0323 97.753V94.1322H57.6348V97.753" stroke="#0096FF" stroke-width="0.4" stroke-miterlimit="10"/>
<path d="M55.6539 90.7945C55.2976 90.7945 54.9992 90.6946 54.7423 90.5031C54.4854 90.3117 54.2948 90.0287 54.154 89.6708C54.0131 89.3128 53.9468 88.8883 53.9468 88.3972C53.9468 87.9061 54.0131 87.4816 54.154 87.1237C54.2948 86.7658 54.4854 86.4911 54.7423 86.2913C54.9992 86.0999 55.2976 86 55.6539 86C56.0102 86 56.3086 86.0999 56.5655 86.2913C56.8224 86.4911 57.0213 86.7658 57.1539 87.1237C57.2947 87.4816 57.361 87.9061 57.361 88.3972C57.361 88.8883 57.2947 89.3128 57.1539 89.6708C57.013 90.0287 56.8224 90.3034 56.5655 90.5031C56.3086 90.7029 56.002 90.7945 55.6539 90.7945ZM55.6539 90.1452C55.9771 90.1452 56.2257 89.9954 56.3997 89.6874C56.5738 89.3794 56.6649 88.9549 56.6649 88.3972C56.6649 87.8395 56.5738 87.415 56.3997 87.1071C56.2257 86.7991 55.9771 86.6492 55.6539 86.6492C55.3307 86.6492 55.0821 86.7991 54.9081 87.1071C54.734 87.415 54.6429 87.8395 54.6429 88.3972C54.6429 88.9549 54.734 89.3794 54.9081 89.6874C55.0821 89.9954 55.3307 90.1452 55.6539 90.1452Z" fill="#0096FF"/>
<path d="M58.2893 90.8028C58.1401 90.8028 58.0324 90.7612 57.9495 90.6696C57.8666 90.5864 57.8335 90.4615 57.8335 90.3034C57.8335 90.1536 57.8749 90.037 57.9578 89.9455C58.0407 89.8539 58.1484 89.804 58.2893 89.804C58.4384 89.804 58.5462 89.8456 58.629 89.9371C58.7119 90.0204 58.7451 90.1452 58.7451 90.3034C58.7451 90.4532 58.7036 90.5697 58.6208 90.6613C58.5379 90.7529 58.4302 90.8028 58.2893 90.8028Z" fill="#0096FF"/>
<path d="M59.5322 90.7278L59.3168 90.1784L60.7339 88.572C60.8084 88.4887 60.8913 88.3972 60.9659 88.2973C61.0405 88.1974 61.1233 88.0892 61.1979 87.9727C61.2725 87.8645 61.3305 87.7479 61.3802 87.6397C61.43 87.5315 61.4465 87.4316 61.4465 87.3317C61.4465 87.1902 61.4217 87.0654 61.3637 86.9655C61.3057 86.8656 61.2311 86.7907 61.1233 86.7324C61.0239 86.6825 60.8913 86.6492 60.7504 86.6492C60.6261 86.6492 60.4935 86.6825 60.3692 86.7657C60.2449 86.849 60.1289 86.9488 60.0295 87.082C59.93 87.2235 59.8471 87.3817 59.7891 87.5648L59.2422 87.2152C59.3168 86.9572 59.4328 86.7408 59.582 86.5493C59.7311 86.3662 59.9217 86.2247 60.1289 86.1248C60.3361 86.0249 60.5764 85.975 60.825 85.975C61.0736 85.975 61.3139 86.0332 61.5211 86.1414C61.7283 86.2497 61.8858 86.3995 62.0018 86.5909C62.1178 86.7824 62.1758 87.0071 62.1758 87.2568C62.1758 87.3567 62.1675 87.4649 62.1426 87.5731C62.1178 87.6813 62.0846 87.7895 62.0349 87.9061C61.9852 88.0226 61.9272 88.1391 61.8526 88.2557C61.778 88.3805 61.6869 88.5054 61.5874 88.6386C61.488 88.7717 61.3637 88.9132 61.2311 89.0547L60.1786 90.2034L60.046 90.0036H62.325V90.6945H59.5239L59.5322 90.7278Z" fill="#0096FF"/>
<path d="M64.1236 90.7779C63.817 90.7779 63.5435 90.7113 63.2949 90.5698C63.0463 90.4283 62.8391 90.2285 62.6816 89.9705L63.0794 89.521C63.2866 89.754 63.4689 89.9122 63.6264 89.9954C63.7838 90.0787 63.9496 90.1203 64.1319 90.1203C64.3142 90.1203 64.4799 90.0787 64.6208 90.0038C64.77 89.9205 64.886 89.8123 64.9689 89.6791C65.0517 89.5376 65.1015 89.3878 65.1015 89.2213C65.1015 89.0549 65.06 88.8884 64.9771 88.7469C64.8943 88.6054 64.7865 88.4972 64.6457 88.4139C64.5048 88.3307 64.3556 88.2891 64.1816 88.2891C64.0987 88.2891 64.0159 88.2891 63.9413 88.3057C63.8667 88.3224 63.7755 88.339 63.6678 88.3806C63.5601 88.4223 63.4192 88.4805 63.2534 88.5638L62.8722 88.0477L63.1457 86.0667H65.6484V86.7325H63.5932L63.7341 86.6077L63.5186 88.0893L63.3529 87.8979C63.3943 87.8562 63.4689 87.8063 63.5766 87.7647C63.6844 87.7231 63.8004 87.6898 63.933 87.6565C64.0656 87.6315 64.1899 87.6149 64.3059 87.6149C64.5877 87.6149 64.8446 87.6814 65.0683 87.8146C65.2921 87.9478 65.4661 88.1309 65.5987 88.3557C65.7313 88.5887 65.7976 88.8468 65.7976 89.1464C65.7976 89.4461 65.723 89.7291 65.5821 89.9788C65.4329 90.2285 65.234 90.4199 64.9854 90.5614C64.7368 90.703 64.4468 90.7779 64.1402 90.7779H64.1236Z" fill="#0096FF"/>
<path d="M66.7007 90.7279V86.0667H67.4134V90.7279H66.7007ZM67.0156 88.7469V88.056H70.0486V88.7469H67.0156ZM69.7337 90.7279V86.0667H70.4464V90.7279H69.7337Z" fill="#0096FF"/>
<path d="M57.4521 158V100.7" stroke="#0096FF" stroke-width="0.4" stroke-miterlimit="10"/>
<path d="M67.1064 158V100.7" stroke="#0096FF" stroke-width="0.4" stroke-miterlimit="10"/>
<path d="M279.437 156.785V100.7" stroke="#0096FF" stroke-width="0.4" stroke-miterlimit="10"/>
<path d="M288.843 100.7V156.785" stroke="#0096FF" stroke-width="0.4" stroke-miterlimit="10"/>
</g>
<defs>
<clipPath id="clip0_986_19724">
<rect width="499" height="65" fill="white"/>
</clipPath>
<clipPath id="clip1_986_19724">
<rect width="428" height="72" fill="white" transform="translate(34 86)"/>
</clipPath>
</defs>
</svg>
