<svg width="234" height="158" viewBox="0 0 234 158" fill="none" xmlns="http://www.w3.org/2000/svg">
<g clip-path="url(#clip0_986_19727)">
<path d="M107.411 67.5974V49.6325C107.411 49.4393 107.253 49.2811 107.061 49.2811H99.8039C99.6118 49.2811 99.4546 49.4393 99.4546 49.6325V75.3016C99.4546 75.4949 99.6118 75.653 99.8039 75.653H111.044C111.236 75.653 111.393 75.4949 111.393 75.3016V69.1084C111.393 68.9151 111.236 68.757 111.044 68.757H108.563C107.926 68.757 107.411 68.2387 107.411 67.5974Z" fill="#FF281E"/>
<path d="M103.551 45.5212C106.29 45.5212 108.511 43.6137 108.511 41.2606C108.511 38.9075 106.29 37 103.551 37C100.811 37 98.5903 38.9075 98.5903 41.2606C98.5903 43.6137 100.811 45.5212 103.551 45.5212Z" fill="#FF281E"/>
<path d="M228.446 65.9194C228.324 65.7701 228.105 65.7525 227.957 65.8843C223.18 69.9692 214.892 69.0556 214.088 61.9048C213.407 55.8784 218.123 53.6559 221.145 53.6471C221.826 53.6471 222.35 53.6471 222.752 53.7086C223.328 53.7877 223.756 54.2884 223.756 54.8682V56.8975C223.756 57.0907 223.913 57.2489 224.105 57.2489H230.14C230.332 57.2489 230.489 57.0907 230.489 56.8975V50.0366C230.489 49.4128 230.158 48.8243 229.625 48.5168C225.948 46.3645 220.892 45.8374 216.7 47.0761C209.888 49.0878 206.333 54.6925 206.517 61.2108C206.648 65.9194 207.722 72.2181 215.582 74.7833C224.07 77.5505 231.031 72.4377 232.437 71.2342C232.585 71.1112 232.603 70.8916 232.472 70.7423L228.455 65.9194H228.446Z" fill="#FF281E"/>
<path d="M172.745 68.7657H170.832C170.195 68.7657 169.679 68.2474 169.679 67.6061V46.8126C169.679 46.6193 169.522 46.4612 169.33 46.4612H163.129C162.937 46.4612 162.78 46.6193 162.78 46.8126V49.1318C160.728 47.4539 158.221 46.47 155.505 46.47C148.527 46.47 142.877 53.0058 142.877 61.0615C142.877 69.1171 148.527 75.653 155.505 75.653C158.641 75.653 161.505 74.3265 163.715 72.1391V75.3016C163.715 75.4949 163.872 75.653 164.064 75.653H172.745C172.937 75.653 173.094 75.4949 173.094 75.3016V69.1171C173.094 68.9238 172.937 68.7657 172.745 68.7657ZM156.623 68.7481C153.016 68.7481 150.099 65.3045 150.099 61.0615C150.099 56.8184 153.016 53.3748 156.623 53.3748C160.23 53.3748 163.147 56.8184 163.147 61.0615C163.147 65.3045 160.23 68.7481 156.623 68.7481Z" fill="#FF281E"/>
<path d="M204.246 68.7657H202.333C201.696 68.7657 201.18 68.2474 201.18 67.6061V46.8126C201.18 46.6193 201.023 46.4612 200.831 46.4612H194.63C194.438 46.4612 194.281 46.6193 194.281 46.8126V49.1318C192.229 47.4539 189.722 46.47 187.006 46.47C180.028 46.47 174.378 53.0058 174.378 61.0615C174.378 69.1171 180.028 75.653 187.006 75.653C190.142 75.653 193.006 74.3265 195.216 72.1391V75.3016C195.216 75.4949 195.373 75.653 195.565 75.653H204.246C204.438 75.653 204.595 75.4949 204.595 75.3016V69.1171C204.595 68.9238 204.438 68.7657 204.246 68.7657ZM188.124 68.7481C184.517 68.7481 181.6 65.3045 181.6 61.0615C181.6 56.8184 184.517 53.3748 188.124 53.3748C191.731 53.3748 194.648 56.8184 194.648 61.0615C194.648 65.3045 191.731 68.7481 188.124 68.7481Z" fill="#FF281E"/>
<path d="M129.672 58.2065C125.192 56.3353 123.655 55.9927 123.664 54.2533C123.681 52.6369 125.829 52.1099 127.856 52.1099C129.646 52.1099 131.82 52.7599 131.882 54.0249V55.7995C131.882 55.9927 132.039 56.1508 132.231 56.1508H138.344C138.536 56.1508 138.694 55.9927 138.694 55.7995V50.88C138.694 50.3705 138.475 49.8961 138.1 49.5623C136.807 48.4466 133.384 46.0923 127.419 46.0835C118.668 46.0835 115.48 50.4232 115.48 54.0337C115.48 56.9854 116.921 60.2358 124.301 62.9239C130.257 65.0937 132.554 65.8668 132.283 67.94C132.065 69.5828 129.48 70.0835 127.419 70.1011C125.358 70.1098 122.782 69.126 122.782 67.6501V66.0952C122.782 65.9019 122.624 65.7438 122.432 65.7438H115.987C115.795 65.7438 115.638 65.9019 115.638 66.0952V70.6369C115.638 71.0586 115.786 71.4627 116.066 71.7877C117.227 73.1318 120.904 76.3997 128.869 75.9605C135.908 75.5652 139.654 71.4188 139.654 68.0279C139.654 64.1362 137.55 61.5359 129.663 58.2328L129.672 58.2065Z" fill="#FF281E"/>
<path d="M198.176 102.464C193.696 100.593 192.159 100.25 192.167 98.511C192.185 96.8946 194.333 96.3675 196.359 96.3675C198.15 96.3675 200.324 97.0176 200.386 98.2826V100.057C200.386 100.25 200.543 100.409 200.735 100.409H206.848C207.04 100.409 207.197 100.25 207.197 100.057V95.1377C207.197 94.6282 206.979 94.1538 206.604 93.82C205.311 92.7043 201.888 90.35 195.923 90.3412C187.172 90.3412 183.984 94.6809 183.984 98.2914C183.984 101.243 185.425 104.493 192.805 107.182C198.761 109.351 201.058 110.124 200.787 112.198C200.569 113.84 197.984 114.341 195.923 114.359C193.862 114.368 191.285 113.384 191.285 111.908V110.353C191.285 110.16 191.128 110.002 190.936 110.002H184.491C184.299 110.002 184.142 110.16 184.142 110.353V114.895C184.142 115.316 184.29 115.72 184.57 116.045C185.731 117.39 189.408 120.657 197.373 120.218C204.412 119.823 208.158 115.676 208.158 112.286C208.158 108.394 206.053 105.794 198.167 102.491L198.176 102.464Z" fill="#FF281E"/>
<path d="M132.668 90.7013C124.904 90.7013 118.607 97.2372 118.607 105.302C118.607 113.366 124.904 119.902 132.668 119.902C140.431 119.902 146.728 113.366 146.728 105.302C146.728 97.2372 140.431 90.7013 132.668 90.7013ZM132.668 112.979C128.895 112.979 125.838 109.545 125.838 105.302C125.838 101.059 128.895 97.6237 132.668 97.6237C136.44 97.6237 139.497 101.059 139.497 105.302C139.497 109.545 136.44 112.979 132.668 112.979Z" fill="#FF281E"/>
<path d="M180.212 113.023H178.299C177.662 113.023 177.146 112.505 177.146 111.864V91.0791C177.146 90.8858 176.989 90.7277 176.797 90.7277H170.596C170.404 90.7277 170.247 90.8858 170.247 91.0791V93.3982C168.195 91.7203 165.688 90.7364 162.972 90.7364C155.994 90.7364 150.344 97.2723 150.344 105.328C150.344 113.384 155.994 119.919 162.972 119.919C166.107 119.919 168.972 118.593 171.181 116.406V119.568C171.181 119.761 171.339 119.919 171.531 119.919H180.212C180.404 119.919 180.561 119.761 180.561 119.568V113.384C180.561 113.19 180.404 113.032 180.212 113.032V113.023ZM164.09 113.006C160.483 113.006 157.566 109.562 157.566 105.319C157.566 101.076 160.483 97.6325 164.09 97.6325C167.697 97.6325 170.614 101.076 170.614 105.319C170.614 109.562 167.697 113.006 164.09 113.006Z" fill="#FF281E"/>
<path d="M233.948 117.152L230.786 111.653C230.682 111.477 230.454 111.433 230.289 111.548C229.529 112.066 227.328 113.225 225.311 112.285C223.215 111.31 223.284 108.578 223.284 108.578V100.066H230.402C230.594 100.066 230.751 99.9077 230.751 99.7145V93.4773C230.751 93.284 230.594 93.1259 230.402 93.1259H223.284V87.2928C223.284 87.0995 223.127 86.9414 222.935 86.9414H216.944C216.752 86.9414 216.595 87.0995 216.595 87.2928V89.4451C216.595 91.0088 216.193 92.0717 215.232 92.8975C214.08 93.8902 212.481 94.0571 211.8 94.0834C211.617 94.0834 211.468 94.2416 211.468 94.4348V99.7145C211.468 99.9077 211.625 100.066 211.818 100.066H215.774V108.271C215.817 109.395 215.424 115.351 219.774 118.215C225.599 122.045 233.005 118.259 233.86 117.609C234 117.504 234.035 117.31 233.948 117.152Z" fill="#FF281E"/>
<path d="M117.638 117.152L114.476 111.653C114.371 111.477 114.144 111.433 113.978 111.548C113.219 112.066 111.018 113.225 109 112.285C106.904 111.31 106.974 108.578 106.974 108.578V100.066H114.092C114.284 100.066 114.441 99.9077 114.441 99.7145V93.4773C114.441 93.284 114.284 93.1259 114.092 93.1259H106.974V87.2928C106.974 87.0995 106.817 86.9414 106.625 86.9414H100.634C100.442 86.9414 100.285 87.0995 100.285 87.2928V89.4451C100.285 91.0088 99.8829 92.0717 98.9223 92.8975C97.7695 93.8902 96.1713 94.0571 95.4901 94.0834C95.3067 94.0834 95.1582 94.2416 95.1582 94.4348V99.7145C95.1582 99.9077 95.3154 100.066 95.5075 100.066H99.4637V108.271C99.5074 109.395 99.1144 115.351 103.464 118.215C109.289 122.045 116.695 118.259 117.55 117.609C117.69 117.504 117.725 117.31 117.638 117.152Z" fill="#FF281E"/>
<rect x="6" y="58" width="71" height="54" fill="white"/>
<path d="M28.9071 78.4641C32.3365 78.4641 35.1165 75.6677 35.1165 72.2181C35.1165 68.7686 32.3365 65.9722 28.9071 65.9722C25.4778 65.9722 22.6978 68.7686 22.6978 72.2181C22.6978 75.6677 25.4778 78.4641 28.9071 78.4641Z" fill="#FF281E"/>
<path d="M51.6137 78.4641C55.043 78.4641 57.823 75.6677 57.823 72.2181C57.823 68.7686 55.043 65.9722 51.6137 65.9722C48.1843 65.9722 45.4043 68.7686 45.4043 72.2181C45.4043 75.6677 48.1843 78.4641 51.6137 78.4641Z" fill="#FF281E"/>
<path d="M80.521 59.1552C80.521 57.9078 79.5778 56.8887 78.3464 56.7218C70.8533 55.6852 64.9233 49.7291 63.9015 42.1918C63.7356 40.9531 62.7226 40.0044 61.4824 40.0044H15.7374C7.04777 40.0044 0 47.0937 0 55.8346V116.608C0 119.032 1.95626 121 4.36665 121H76.1544C78.5648 121 80.521 119.032 80.521 116.608V59.1552ZM28.9072 59.0322C33.7717 59.0322 37.9986 61.7028 40.2605 65.6559C42.5224 61.7028 46.7581 59.0322 51.6138 59.0322C58.8537 59.0322 64.7137 64.9356 64.7137 72.2094C64.7137 79.4832 58.845 85.3865 51.6138 85.3865C46.7493 85.3865 42.5224 82.716 40.2605 78.7628C37.9986 82.716 33.7629 85.3865 28.9072 85.3865C21.6673 85.3865 15.8073 79.4832 15.8073 72.2094C15.8073 64.9356 21.676 59.0322 28.9072 59.0322ZM74.495 92.1245L70.2594 97.2987C70.1284 97.4656 69.8839 97.4832 69.7179 97.3514L67.0019 95.1025C66.8534 94.9795 66.6351 94.9883 66.5041 95.1201C59.5262 101.893 50.461 105.442 40.0509 105.442C27.3352 105.442 16.4797 99.9956 9.24856 90.0776C9.13503 89.9283 9.16996 89.7086 9.3097 89.5944L14.5497 85.3338C14.7069 85.2108 14.9252 85.246 15.0475 85.4041C20.9075 93.6267 29.5186 97.9751 40.0509 97.9751C49.6226 97.9751 57.7533 94.3031 63.5522 87.3631L65.6744 84.8331C65.8054 84.675 66.0499 84.6486 66.2071 84.7804L74.4426 91.5798C74.6086 91.7116 74.626 91.9575 74.495 92.1245Z" fill="#FF281E"/>
</g>
<defs>
<clipPath id="clip0_986_19727">
<rect width="234" height="84" fill="white" transform="translate(0 37)"/>
</clipPath>
</defs>
</svg>
