<svg width="90" height="29" viewBox="0 0 90 29" fill="none" xmlns="http://www.w3.org/2000/svg">
<path d="M89.817 9.62491L78.492 0.124759C78.2748 -0.0652441 77.9335 -0.0335754 77.7473 0.188095L74.8308 3.71898C66.8412 13.4091 55.6558 18.5392 42.4847 18.5392C27.9949 18.5392 16.1424 12.4591 8.07524 0.979774C7.92011 0.758104 7.60983 0.710604 7.39264 0.884773L0.17876 6.85403C-0.022918 7.01237 -0.0539454 7.31321 0.085678 7.53488C10.03 21.3893 24.9697 28.9894 42.4692 28.9894C56.8038 28.9894 69.2769 24.0335 78.8798 14.5808C79.066 14.3908 79.3608 14.375 79.578 14.5492L83.3168 17.6842C83.5495 17.8742 83.8753 17.8425 84.0614 17.605L89.8791 10.3691C90.0652 10.1316 90.0342 9.79908 89.8015 9.60908L89.817 9.62491Z" fill="white"/>
</svg>
