<svg width="59" height="42" viewBox="0 0 59 42" fill="none" xmlns="http://www.w3.org/2000/svg">
<g clip-path="url(#clip0_635_23018)">
<path d="M17.5001 23.7294C21.8101 23.7294 25.5701 21.3309 27.5701 17.769C29.5801 21.3309 33.3301 23.7294 37.6401 23.7294C44.0601 23.7294 49.2601 18.4222 49.2601 11.8698C49.2601 5.31742 44.0701 0 37.6501 0C33.3401 0 29.5801 2.39845 27.5801 5.96041C25.5701 2.39845 21.8201 0 17.5101 0C11.0801 0 5.87012 5.30722 5.87012 11.8596C5.87012 18.412 11.0701 23.7192 17.4901 23.7192L17.5001 23.7294ZM37.6501 6.24619C40.6901 6.24619 43.1601 8.76711 43.1601 11.8698C43.1601 14.9725 40.6901 17.4934 37.6501 17.4934C34.6101 17.4934 32.1401 14.9725 32.1401 11.8698C32.1401 8.76711 34.6101 6.24619 37.6501 6.24619ZM17.5001 6.24619C20.5401 6.24619 23.0101 8.76711 23.0101 11.8698C23.0101 14.9725 20.5401 17.4934 17.5001 17.4934C14.4601 17.4934 11.9901 14.9725 11.9901 11.8698C11.9901 8.76711 14.4601 6.24619 17.5001 6.24619Z" fill="white"/>
<path d="M57.9001 29.3019L50.6001 23.1782C50.4601 23.0557 50.2401 23.0761 50.1201 23.219L48.2401 25.495C43.0901 31.7412 35.8801 35.048 27.3901 35.048C18.0501 35.048 10.4101 31.1288 5.21011 23.7293C5.11011 23.5864 4.91011 23.5558 4.77011 23.6681L0.12011 27.5158C-0.00988991 27.6179 -0.0298899 27.8118 0.0601101 27.9547C6.47011 36.8851 16.1001 41.7841 27.3801 41.7841C36.6201 41.7841 44.6601 38.5895 50.8501 32.4964C50.9701 32.374 51.1601 32.3638 51.3001 32.476L53.7101 34.4969C53.8601 34.6193 54.0701 34.5989 54.1901 34.4458L57.9401 29.7816C58.0601 29.6285 58.0401 29.4142 57.8901 29.2917L57.9001 29.3019Z" fill="white"/>
</g>
<defs>
<clipPath id="clip0_635_23018">
<rect width="58.02" height="41.7841" fill="white"/>
</clipPath>
</defs>
</svg>
